PathFileType	4	(X/Y/Z)	36_2_rein_59_p0_0-506_filt_butterworth.trc
DataRate	CameraRate	NumFrames	NumMarkers	Units	OrigDataRate	OrigDataStartFrame	OrigNumFrames
44.0	44.0	6	27	m	44.0	379	506
Frame#	Time	RHip			RKnee			RAnkle			RBigToe			RSmallToe			RHeel			LHip			LKnee			LAnkle			LBigToe			LSmallToe			LHeel			Neck			Head			Nose			RShoulder			RElbow			RWrist			RThumb			RIndex			RPinky			LShoulder			LElbow			LWrist			LThumb			LIndex			LPinky			
		X1	Y1	Z1	X2	Y2	Z2	X3	Y3	Z3	X4	Y4	Z4	X5	Y5	Z5	X6	Y6	Z6	X7	Y7	Z7	X8	Y8	Z8	X9	Y9	Z9	X10	Y10	Z10	X11	Y11	Z11	X12	Y12	Z12	X13	Y13	Z13	X14	Y14	Z14	X15	Y15	Z15	X16	Y16	Z16	X17	Y17	Z17	X18	Y18	Z18	X19	Y19	Z19	X20	Y20	Z20	X21	Y21	Z21	X22	Y22	Z22	X23	Y23	Z23	X24	Y24	Z24	X25	Y25	Z25	X26	Y26	Z26	X27	Y27	Z27	
379	8.613636363636363	0.347737112873862	0.48151578048688226	-0.06974485442796309	0.34752062805538864	0.5342620732838628	0.3395998832034828	0.3297269002468127	0.7255561485992728	0.7265795834276	0.33293791076674273	0.5571464183403496	0.7555346957349439	0.3857618264206232	0.6026169763102464	0.7685027825322546	0.32558868903224425	0.7927849491704	0.7737850244782578	0.15507156462375996	0.5042043677153965	-0.05097266894263718	0.12293022793960752	0.4569550038853181	0.3122995029921697	0.1522154886731822	0.6835508649778694	0.7215524097339756	0.18904437702836724	0.5479609160953541	0.7674735451062885	0.12017758735269753	0.5776418025878081	0.7769359982154492	0.1611482897067684	0.7251644318958572	0.7692377229747684	0.18672543707475908	0.4674219194578159	-0.5629990995173492	0.14760357834885723	0.3636234159462552	-0.7811311887767323	0.16460715141572757	0.32080602691451826	-0.6537762138376921	0.34983886520328783	0.4390514489582497	-0.5027442653174954	0.44527577815575725	0.50815462782547	-0.24629928146504146	0.5001883193161656	0.4985137112415974	-0.01921950327750746	0.4672919513680838	0.46632077896215773	0.08875888784308018	0.48858461311238943	0.5056735077042798	0.1117566498540768	0.5092629875434815	0.5259027990120686	0.10327679097120217	0.04396504988951802	0.5397154744785149	-0.46247705189816685	0.08178586498889474	0.6224423604248629	-0.24529681968310785	0.1401799071123416	0.6634868159168072	-0.02348690381847446	0.12690323930640982	0.620181563814261	0.04907456958933666	0.11162027017823188	0.6259072311769059	0.07989120073456189	0.178220848910158	0.7667695956602575	0.08351211142462753
380	8.636363636363637	0.3477730712715828	0.48150852221338414	-0.06985809660434977	0.3474921297542063	0.5346856049845103	0.339918561400834	0.3296761470846799	0.7254522814884041	0.7265767476137464	0.3319140240227269	0.5498153346097925	0.7532348897591559	0.3860593971039289	0.5956074312156624	0.7654083951887602	0.3257887528553387	0.7928339648518636	0.7726992880085576	0.15501238207449408	0.5043879413787288	-0.05114403895849456	0.12327590539446903	0.45741237859061623	0.3119194420480587	0.15218232568562806	0.6835431160381541	0.7212442706490844	0.1888076046388079	0.5440044179427277	0.766825399388165	0.12134644878800258	0.5757972653124132	0.7761747413646424	0.1607211054040061	0.7250272078482345	0.7691395953142652	0.18661343819808696	0.46716805213785084	-0.5631062764388024	0.14565149875768568	0.3631566254154074	-0.7807665717970017	0.1640307808611073	0.3207521174227459	-0.6525426096982343	0.34975483810628805	0.4392818096166198	-0.502675455800784	0.4451409510530651	0.5087708669108177	-0.24612564123797687	0.500305979661758	0.498210977907839	-0.01933793273640482	0.4669449644960384	0.46605522338663474	0.08861362819359227	0.4877928189276529	0.5049461320905386	0.11183839373716058	0.50929183034141	0.5257365685704388	0.10315538448526089	0.04425158518480015	0.5400382773396264	-0.4625757591245905	0.08657758041488602	0.6341926509691709	-0.2390247480614752	0.14292913312246674	0.6540545188922802	-0.028707660222889467	0.1392226594625696	0.6269788994936469	0.04464183942927646	0.1214676448640747	0.6285294597226461	0.07703192880634202	0.1849096692135913	0.7577571887392899	0.07394911903476234
381	8.659090909090908	0.34786635958601086	0.48149323772184693	-0.06996014899057285	0.34736348648096627	0.5351810014237639	0.3400052709190742	0.3296507489534868	0.725464357844634	0.726651963495424	0.33005595887197237	0.5444737911185287	0.753938589921163	0.38613991683505244	0.5939559473182924	0.7670717730528104	0.3255484833998603	0.7929362339299107	0.7729068995266979	0.15455699988561106	0.5042091649794593	-0.05132239911458064	0.12352261823987173	0.45783861736741327	0.3102290352822053	0.15220600220046565	0.6834804650406308	0.7196167212116539	0.1893341155030399	0.5367204525469871	0.7638071217090294	0.1219890173607292	0.577389269528784	0.7747171941857002	0.16030462877838567	0.7250484386946864	0.7696141781183724	0.1867179875158057	0.46774017869217727	-0.5632678235636285	0.14415906892590846	0.3627488525923084	-0.7803216840754403	0.16393809728040984	0.320695814692189	-0.6517401268868017	0.34958873345492414	0.43987862760712165	-0.5026155915990624	0.4451826652835313	0.5082675470334006	-0.24601396332624678	0.5002450082404998	0.49836289975801734	-0.019254748987350866	0.46656804843939303	0.4651594706825537	0.08847911338849122	0.48823600110638354	0.5050224958134448	0.11355829920042465	0.5104556502883608	0.5281874160960707	0.10525076128650074	0.044368918965458554	0.5400587702930663	-0.462645041364611	0.09386767988759052	0.6534579052416026	-0.23209957057162328	0.14527213464943892	0.6440145426458053	-0.034089598449733576	0.15119909267931064	0.6338587018043522	0.039988827146836	0.1308309126167703	0.6312203981118109	0.07398690275688188	0.1909253765573249	0.7484200303528988	0.06417601759608382
382	8.681818181818182	0.34785602269059984	0.4813042460687668	-0.06957615073168293	0.3475653163016511	0.5341620878682343	0.3388924316162188	0.3296762152918547	0.7255396489713338	0.7268052488030502	0.328319127431828	0.5435693612462318	0.756367704953272	0.385894611671005	0.5944979647335414	0.7702015024555784	0.32515896978996406	0.7925588990140275	0.7730700066490512	0.1543711574416661	0.5037118501657583	-0.05144775000613237	0.12379731099577886	0.45840621933950504	0.30690709675796984	0.15224045958449417	0.6834338938025183	0.7186358276394096	0.19003316873143564	0.5309011348202913	0.7607103068851406	0.12328794000396033	0.5770488643338619	0.7731759443354136	0.16022361698654575	0.725211164759478	0.7701150833381383	0.186782276432506	0.4676777783101947	-0.5622009439961269	0.14402983091380958	0.3625736802192524	-0.7795552240379102	0.16382462565836817	0.3206357981381242	-0.6516038228298335	0.3496506013754219	0.43939900381579045	-0.5026169287376973	0.4461986962066541	0.5042320088648959	-0.24683233162007112	0.5007044432345619	0.49860755936840156	-0.019480228294023915	0.4671604828301696	0.46590215604703494	0.08946343230826334	0.4910655349264713	0.5073078038037511	0.11703715257465684	0.5127120768272411	0.5319215380367811	0.10995902305969235	0.04437345473497349	0.5400484015940252	-0.46167352961072616	0.10124494882560504	0.6731934852574009	-0.22618673452524807	0.14737494346759814	0.6335857793474745	-0.03951762079308067	0.1631220849555668	0.6406593342808604	0.03535789194856812	0.1401994539626175	0.6339453852217896	0.07096094228211419	0.1965677650515276	0.738559640878465	0.054332617403919925
383	8.704545454545455	0.34749491653580594	0.4806922569205956	-0.06845725906661956	0.34877568791608876	0.5293022075009273	0.3363325283023228	0.3297206434545587	0.7256563466744878	0.7265361857241367	0.32894780280125774	0.5490512681139205	0.7579736534511063	0.3859767554540739	0.5967437201231438	0.7707826300137737	0.3247719734757573	0.7920138778831534	0.7734014300930078	0.1543568845263334	0.5033001324002571	-0.05153402679911154	0.12418745250252093	0.45924580010424465	0.30707767219653115	0.15216376802271125	0.6833942153814672	0.7204521259466585	0.19074680204093064	0.5289938563581438	0.7595015846650104	0.1255827641033701	0.5746012855277709	0.7727414647773764	0.160137308594617	0.7252977513756496	0.7704358856594314	0.18700638244530426	0.4672522751028551	-0.5595350142417552	0.14525579218454768	0.36253037201316174	-0.7795996646497918	0.16400082162741778	0.3205950320142257	-0.6517240259461429	0.35055804887460307	0.43543716162502977	-0.5028124807875662	0.4484346581053412	0.4978327594338109	-0.24904103148703544	0.5020032554670701	0.4978887472730562	-0.02025270829217445	0.47010674398794605	0.4721659523610014	0.09282177787194933	0.49530462036884065	0.5123078454763312	0.1200535641257555	0.5157299029710941	0.5350153324027929	0.11426777652897234	0.044388791321639004	0.5399944137113885	-0.46005297860789257	0.107692505605857	0.6910249960298933	-0.2239013337790076	0.14957110368462695	0.623087330927553	-0.0451128957931724	0.1750170658059121	0.6473626693341263	0.030831379779109144	0.1496640117588512	0.636665553839534	0.06796562943324266	0.2023589819436678	0.7284505830560554	0.044478657457878094
384	8.727272727272727	0.34748872013586196	0.48081888478059404	-0.06801123749306179	0.3505234228699322	0.5223149929395183	0.3345662829712472	0.3296951898921185	0.7255324963242722	0.7253175373838161	0.33080320301477417	0.5609364356857062	0.7583110724839518	0.38688007068281327	0.602703878284585	0.7695741062111243	0.32461990610164926	0.7915237975418205	0.7736671243753155	0.1542691446802176	0.5032730712099391	-0.051713311762134534	0.12436707764796429	0.4597657641459025	0.3100890619490082	0.15207108326654764	0.6833623902949503	0.7228484600280497	0.19043381129559916	0.5303161269323052	0.7601321706803209	0.12710982480467764	0.5767861178993758	0.7745078803944242	0.1601308013313183	0.7251340933697599	0.770708906762744	0.1876694739619954	0.4679982332333703	-0.556721978302632	0.14715667207328825	0.3628349981370113	-0.7803227705583449	0.16529608775367668	0.32067043792815064	-0.6518955153205278	0.3523923698261129	0.4292483632807287	-0.503525961858933	0.4510311405603572	0.4937669483269982	-0.2515253756151729	0.5039997933035196	0.49618609286408166	-0.020750399090095795	0.47450119371422556	0.48214928799251505	0.09771994350143648	0.4984831997180508	0.5178804421147468	0.12145865493054327	0.5191621328327465	0.5377827651433176	0.11497528087237784	0.04442281228301516	0.539858379391039	-0.45899774515979197	0.1090816274564524	0.6951435855430421	-0.22561212281850918	0.15192963573789192	0.6121968423149522	-0.051132638152247084	0.18724006906966104	0.6545264946667144	0.0262735878354892	0.15913835914827135	0.6393772878163095	0.06496216705542568	0.20843277879668998	0.718163382511153	0.03422545508273228
